<svg width="21" height="22" viewBox="0 0 21 22" fill="none" xmlns="http://www.w3.org/2000/svg">
<path fill-rule="evenodd" clip-rule="evenodd" d="M10.5 6.625C9.33968 6.625 8.22688 7.08594 7.40641 7.90641C6.58594 8.72688 6.125 9.83968 6.125 11C6.125 12.1603 6.58594 13.2731 7.40641 14.0936C8.22688 14.9141 9.33968 15.375 10.5 15.375C11.6603 15.375 12.7731 14.9141 13.5936 14.0936C14.4141 13.2731 14.875 12.1603 14.875 11C14.875 9.83968 14.4141 8.72688 13.5936 7.90641C12.7731 7.08594 11.6603 6.625 10.5 6.625ZM7.875 11C7.875 11.6962 8.15156 12.3639 8.64384 12.8562C9.13613 13.3484 9.80381 13.625 10.5 13.625C11.1962 13.625 11.8639 13.3484 12.3562 12.8562C12.8484 12.3639 13.125 11.6962 13.125 11C13.125 10.3038 12.8484 9.63613 12.3562 9.14384C11.8639 8.65156 11.1962 8.375 10.5 8.375C9.80381 8.375 9.13613 8.65156 8.64384 9.14384C8.15156 9.63613 7.875 10.3038 7.875 11Z" fill="#F0EFEF"/>
<path d="M15.75 4.875C15.5179 4.875 15.2954 4.96719 15.1313 5.13128C14.9672 5.29538 14.875 5.51794 14.875 5.75C14.875 5.98206 14.9672 6.20462 15.1313 6.36872C15.2954 6.53281 15.5179 6.625 15.75 6.625C15.9821 6.625 16.2046 6.53281 16.3687 6.36872C16.5328 6.20462 16.625 5.98206 16.625 5.75C16.625 5.51794 16.5328 5.29538 16.3687 5.13128C16.2046 4.96719 15.9821 4.875 15.75 4.875Z" fill="#F0EFEF"/>
<path fill-rule="evenodd" clip-rule="evenodd" d="M4.375 1.375C3.44674 1.375 2.5565 1.74375 1.90013 2.40013C1.24375 3.0565 0.875 3.94674 0.875 4.875V17.125C0.875 18.0533 1.24375 18.9435 1.90013 19.5999C2.5565 20.2563 3.44674 20.625 4.375 20.625H16.625C17.5533 20.625 18.4435 20.2563 19.0999 19.5999C19.7563 18.9435 20.125 18.0533 20.125 17.125V4.875C20.125 3.94674 19.7563 3.0565 19.0999 2.40013C18.4435 1.74375 17.5533 1.375 16.625 1.375H4.375ZM16.625 3.125H4.375C3.91087 3.125 3.46575 3.30937 3.13756 3.63756C2.80937 3.96575 2.625 4.41087 2.625 4.875V17.125C2.625 17.5891 2.80937 18.0342 3.13756 18.3624C3.46575 18.6906 3.91087 18.875 4.375 18.875H16.625C17.0891 18.875 17.5342 18.6906 17.8624 18.3624C18.1906 18.0342 18.375 17.5891 18.375 17.125V4.875C18.375 4.41087 18.1906 3.96575 17.8624 3.63756C17.5342 3.30937 17.0891 3.125 16.625 3.125Z" fill="#F0EFEF"/>
</svg>
