<svg width="24" height="24" viewBox="0 0 24 24" fill="none" xmlns="http://www.w3.org/2000/svg">
<g clip-path="url(#clip0_2424_143)">
<path d="M22.0486 4.4462C21.3983 3.9782 19.5863 3.35645 11.9937 3.35645C3.8573 3.35645 2.65018 4.07045 2.26278 4.30407C0.201031 5.54267 0.00528125 11.0263 -0.0126953 12.1382C0.0120547 13.6067 0.24943 18.4926 2.2613 19.7012C2.64795 19.9341 3.8483 20.6439 11.9937 20.6439C19.5912 20.6439 21.4009 20.0252 22.0486 19.5591C23.8058 18.295 24.0079 13.9416 24.0128 12.1191C24.0083 10.6536 23.8546 5.74709 22.0486 4.44622L22.0486 4.4462ZM21.1726 18.3418C20.9112 18.5301 19.4104 19.1439 11.9936 19.1439C4.82326 19.1439 3.31876 18.5874 3.03451 18.416C2.31076 17.9818 1.54688 15.6767 1.48691 12.134C1.54616 8.5993 2.32053 6.01892 3.03605 5.58992C3.32105 5.4178 4.83116 4.8568 11.9936 4.8568C19.4044 4.8568 20.9093 5.47482 21.1725 5.66382C21.8149 6.12657 22.5027 8.56257 22.5128 12.1239C22.5027 15.7412 21.8104 17.8828 21.1726 18.3418ZM16.8848 11.4103L10.1363 7.26912C10.0226 7.20052 9.89262 7.16336 9.75979 7.16145C9.62695 7.15953 9.49599 7.19294 9.3803 7.25825C9.26452 7.32357 9.16816 7.41847 9.10108 7.53325C9.03401 7.64802 8.99862 7.77856 8.99856 7.9115V16.1952C8.99865 16.3941 9.0777 16.5848 9.21833 16.7255C9.35896 16.8661 9.54967 16.9451 9.74856 16.9452C9.88506 16.9453 10.019 16.9081 10.1359 16.8376L16.8844 12.695C17.1094 12.5589 17.2471 12.3155 17.2471 12.0526C17.2471 11.7897 17.1098 11.5456 16.8848 11.4103H16.8848ZM10.499 14.8666V9.23935L15.0458 12.0526L10.499 14.8666Z" fill="#F0EFEF"/>
</g>
<defs>
<clipPath id="clip0_2424_143">
<rect width="24" height="24" fill="white"/>
</clipPath>
</defs>
</svg>
